name Walk8.mot
datacolumns 19
datarows 20
range 1.65700000 1.67600000
endheader

                time	   L_ground_force_vx	   L_ground_force_vy	   L_ground_force_vz	   L_ground_force_px	   L_ground_force_py	   L_ground_force_pz	   R_ground_force_vx	   R_ground_force_vy	   R_ground_force_vz	   R_ground_force_px	   R_ground_force_py	   R_ground_force_pz	   L_ground_torque_x	   L_ground_torque_y	   L_ground_torque_z	   R_ground_torque_x	   R_ground_torque_y	   R_ground_torque_z	
          1.65700000	          2.22389635	        689.68649834	         43.58865222	         -0.30447568	          0.00000000	         -0.07814176	         -0.11189250	          0.64173417	          0.02176979	          0.00003791	          0.00000000	          0.00002509	          0.00000000	          0.75897474	          0.00000000	          0.00000000	         -0.00171026	          0.00000000	
          1.65800000	          2.82433620	        691.28239158	         43.58751424	         -0.30418696	          0.00000000	         -0.07811381	         -0.11149568	          0.61636286	          0.02035899	          0.00003194	          0.00000000	          0.00001633	          0.00000000	          0.76713014	          0.00000000	          0.00000000	         -0.00066388	          0.00000000	
          1.65900000	          3.43050911	        692.88654500	         43.58532451	         -0.30390070	          0.00000000	         -0.07808434	         -0.11060152	          0.58608840	          0.01873302	          0.00002527	          0.00000000	          0.00000668	          0.00000000	          0.77499019	          0.00000000	          0.00000000	          0.00048247	          0.00000000	
          1.66000000	          4.04222460	        694.49847397	         43.58199737	         -0.30361684	          0.00000000	         -0.07805335	         -0.10916749	          0.55058019	          0.01687859	          0.00001789	          0.00000000	         -0.00000389	          0.00000000	          0.78254480	          0.00000000	          0.00000000	          0.00173336	          0.00000000	
          1.66100000	          4.65928897	        696.11767975	         43.57744552	         -0.30333533	          0.00000000	         -0.07802084	         -0.10714936	          0.50949853	          0.01478213	          0.00000974	          0.00000000	         -0.00001543	          0.00000000	          0.78978426	          0.00000000	          0.00000000	          0.00309332	          0.00000000	
          1.66200000	          5.28150609	        697.74364834	         43.57158032	         -0.30305610	          0.00000000	         -0.07798683	         -0.10450117	          0.46249517	          0.01242980	          0.00000080	          0.00000000	         -0.00002798	          0.00000000	          0.79669951	          0.00000000	          0.00000000	          0.00456688	          0.00000000	
          1.66300000	          5.90867844	        699.37584879	         43.56431223	         -0.30277911	          0.00000000	         -0.07795132	         -0.10117532	          0.40921396	          0.00980755	         -0.00000897	          0.00000000	         -0.00004157	          0.00000000	          0.80328245	          0.00000000	          0.00000000	          0.00615852	          0.00000000	
          1.66400000	          6.54060836	        701.01373182	         43.55555142	         -0.30250428	          0.00000000	         -0.07791432	         -0.09712257	          0.34929158	          0.00690113	         -0.00001962	          0.00000000	         -0.00005626	          0.00000000	          0.80952616	          0.00000000	          0.00000000	          0.00787262	          0.00000000	
          1.66500000	          7.17709946	        702.65672932	         43.54520850	         -0.30223157	          0.00000000	         -0.07787583	         -0.09229211	          0.28235836	          0.00369612	         -0.00003118	          0.00000000	         -0.00007208	          0.00000000	          0.81542496	          0.00000000	          0.00000000	          0.00971349	          0.00000000	
          1.66600000	          7.81795785	        704.30425516	         43.53319527	         -0.30196091	          0.00000000	         -0.07783587	         -0.08663162	          0.20803926	          0.00017802	         -0.00004368	          0.00000000	         -0.00008907	          0.00000000	          0.82097441	          0.00000000	          0.00000000	          0.01168531	          0.00000000	
          1.66700000	          8.46299322	        705.95570736	         43.51942544	         -0.30169223	          0.00000000	         -0.07779445	         -0.08008735	          0.12595487	         -0.00366773	         -0.00005716	          0.00000000	         -0.00010728	          0.00000000	          0.82617111	          0.00000000	          0.00000000	          0.01379210	          0.00000000	
          1.66800000	          9.11201986	        707.61047106	         43.50381539	         -0.30142549	          0.00000000	         -0.07775159	         -0.07260420	          0.03572260	         -0.00785570	         -0.00007166	          0.00000000	         -0.00012673	          0.00000000	          0.83101244	          0.00000000	          0.00000000	          0.01603771	          0.00000000	
          1.66900000	          9.76485768	        709.26792161	         43.48628494	         -0.30116062	          0.00000000	         -0.07770729	         -0.06412583	         -0.06304204	         -0.01240039	         -0.00008721	          0.00000000	         -0.00014747	          0.00000000	          0.83549629	          0.00000000	          0.00000000	          0.01842575	          0.00000000	
          1.67000000	         10.42133342	        710.92742734	         43.46675798	         -0.30089757	          0.00000000	         -0.07766158	         -0.05459477	         -0.17072403	         -0.01731619	         -0.00010385	          0.00000000	         -0.00016952	          0.00000000	          0.83962077	          0.00000000	          0.00000000	          0.02095961	          0.00000000	
          1.67100000	         11.08128199	        712.58835135	         43.44516316	         -0.30063628	          0.00000000	         -0.07761447	         -0.04395257	         -0.28770729	         -0.02261727	         -0.00012160	          0.00000000	         -0.00019293	          0.00000000	          0.84338408	          0.00000000	          0.00000000	          0.02364236	          0.00000000	
          1.67200000	         11.74454776	        714.25005208	         43.42143438	         -0.30037670	          0.00000000	         -0.07756597	         -0.03213992	         -0.41437303	         -0.02831755	         -0.00014050	          0.00000000	         -0.00021771	          0.00000000	          0.84678433	          0.00000000	          0.00000000	          0.02647677	          0.00000000	
          1.67300000	         12.41098580	        715.91188208	         43.39551127	         -0.30011876	          0.00000000	         -0.07751609	         -0.01909684	         -0.55109786	         -0.03443058	         -0.00016058	          0.00000000	         -0.00024389	          0.00000000	          0.84981954	          0.00000000	          0.00000000	          0.02946522	          0.00000000	
          1.67400000	         13.08046310	        717.57318546	         43.36733963	         -0.29986240	          0.00000000	         -0.07746487	         -0.00476287	         -0.69825186	         -0.04096947	         -0.00018186	          0.00000000	         -0.00027151	          0.00000000	          0.85248748	          0.00000000	          0.00000000	          0.03260968	          0.00000000	
          1.67500000	         13.75285968	        719.23329454	         43.33687154	         -0.29960757	          0.00000000	         -0.07741232	          0.01092276	         -0.85619644	         -0.04794678	         -0.00020436	          0.00000000	         -0.00030056	          0.00000000	          0.85478583	          0.00000000	          0.00000000	          0.03591167	          0.00000000	
          1.67600000	         14.42806964	        720.89152688	         43.30406554	         -0.29935420	          0.00000000	         -0.07735847	          0.02802087	         -1.02528202	         -0.05537445	         -0.00022811	          0.00000000	         -0.00033108	          0.00000000	          0.85671221	          0.00000000	          0.00000000	          0.03937218	          0.00000000	
